<svg width="202" height="209" viewBox="0 0 202 209" fill="none" xmlns="http://www.w3.org/2000/svg">
<g filter="url(#filter0_di_75_690)">
<circle cx="86" cy="108" r="48" fill="black"/>
</g>
<path d="M72.0965 127.103C81.137 127.103 87.0905 123.721 87.0905 115.636C87.0905 109.903 84.0035 107.184 78.8585 105.273L72.9785 103.068C71.288 102.406 70.406 101.965 70.406 100.936C70.406 100.054 70.9205 99.4665 73.1255 99.4665C75.845 99.4665 79.5935 100.495 83.195 101.965L86.282 92.9985C81.9455 91.602 77.8295 90.9405 74.0075 90.9405C64.232 90.9405 59.4545 94.983 59.4545 101.965C59.4545 107.037 62.174 110.344 67.76 112.476L73.7135 114.828C74.7425 115.269 76.0655 115.489 76.0655 116.812C76.0655 117.915 74.963 118.356 72.9785 118.356C68.789 118.356 64.5995 116.592 60.9245 114.46L56.735 123.575C61.88 126.147 67.613 127.103 72.0965 127.103ZM100.07 127.103C105.068 127.103 108.302 124.603 110.728 120.708H110.875V126H121.753V92.043H110.654V108.433C110.654 114.681 108.155 117.4 104.26 117.4C100.952 117.4 98.6736 115.489 98.6736 110.565V92.043H87.2076V112.99C87.2076 122.692 92.8671 127.103 100.07 127.103ZM147.157 127.103C155.977 127.103 163.327 120.928 163.327 109.021C163.327 97.1145 155.977 90.9405 147.157 90.9405C141.718 90.9405 138.264 93.219 136.132 96.6735H135.985V74.55H124.887V126H135.985V121.369H136.132C138.264 124.824 141.718 127.103 147.157 127.103ZM144.07 116.959C139.66 116.959 136.279 113.872 136.279 109.021C136.279 104.17 139.66 101.083 144.07 101.083C148.554 101.083 151.935 104.17 151.935 109.021C151.935 113.872 148.554 116.959 144.07 116.959ZM180.587 75.285C169.341 75.285 162.947 80.7975 162.873 90.426H174.266C174.339 87.339 176.544 85.5015 180.146 85.5015C183.674 85.5015 185.658 87.2655 185.658 90.4995C185.658 94.542 183.233 96.306 177.794 96.306H176.103V104.685H177.794C185.07 104.685 187.716 106.228 187.716 110.638C187.716 114.754 185.438 116.886 180.954 116.886C176.471 116.886 173.972 114.828 173.678 110.859H162.065C162.065 121.369 168.753 127.103 180.881 127.103C192.494 127.103 199.256 121.443 199.256 111.814C199.256 104.905 195.581 100.642 188.892 99.6135V99.4665C194.478 98.217 197.712 94.101 197.712 88.368C197.712 79.989 191.612 75.285 180.587 75.285Z" fill="#DF2768"/>
<path d="M72.0965 127.103C81.137 127.103 87.0905 123.721 87.0905 115.636C87.0905 109.903 84.0035 107.184 78.8585 105.273L72.9785 103.068C71.288 102.406 70.406 101.965 70.406 100.936C70.406 100.054 70.9205 99.4665 73.1255 99.4665C75.845 99.4665 79.5935 100.495 83.195 101.965L86.282 92.9985C81.9455 91.602 77.8295 90.9405 74.0075 90.9405C64.232 90.9405 59.4545 94.983 59.4545 101.965C59.4545 107.037 62.174 110.344 67.76 112.476L73.7135 114.828C74.7425 115.269 76.0655 115.489 76.0655 116.812C76.0655 117.915 74.963 118.356 72.9785 118.356C68.789 118.356 64.5995 116.592 60.9245 114.46L56.735 123.575C61.88 126.147 67.613 127.103 72.0965 127.103ZM100.07 127.103C105.068 127.103 108.302 124.603 110.728 120.708H110.875V126H121.753V92.043H110.654V108.433C110.654 114.681 108.155 117.4 104.26 117.4C100.952 117.4 98.6736 115.489 98.6736 110.565V92.043H87.2076V112.99C87.2076 122.692 92.8671 127.103 100.07 127.103ZM147.157 127.103C155.977 127.103 163.327 120.928 163.327 109.021C163.327 97.1145 155.977 90.9405 147.157 90.9405C141.718 90.9405 138.264 93.219 136.132 96.6735H135.985V74.55H124.887V126H135.985V121.369H136.132C138.264 124.824 141.718 127.103 147.157 127.103ZM144.07 116.959C139.66 116.959 136.279 113.872 136.279 109.021C136.279 104.17 139.66 101.083 144.07 101.083C148.554 101.083 151.935 104.17 151.935 109.021C151.935 113.872 148.554 116.959 144.07 116.959ZM180.587 75.285C169.341 75.285 162.947 80.7975 162.873 90.426H174.266C174.339 87.339 176.544 85.5015 180.146 85.5015C183.674 85.5015 185.658 87.2655 185.658 90.4995C185.658 94.542 183.233 96.306 177.794 96.306H176.103V104.685H177.794C185.07 104.685 187.716 106.228 187.716 110.638C187.716 114.754 185.438 116.886 180.954 116.886C176.471 116.886 173.972 114.828 173.678 110.859H162.065C162.065 121.369 168.753 127.103 180.881 127.103C192.494 127.103 199.256 121.443 199.256 111.814C199.256 104.905 195.581 100.642 188.892 99.6135V99.4665C194.478 98.217 197.712 94.101 197.712 88.368C197.712 79.989 191.612 75.285 180.587 75.285Z" fill="url(#paint0_linear_75_690)"/>
<defs>
<filter id="filter0_di_75_690" x="-18" y="0.952381" width="208" height="208" filterUnits="userSpaceOnUse" color-interpolation-filters="sRGB">
<feFlood flood-opacity="0" result="BackgroundImageFix"/>
<feColorMatrix in="SourceAlpha" type="matrix" values="0 0 0 0 0 0 0 0 0 0 0 0 0 0 0 0 0 0 127 0" result="hardAlpha"/>
<feOffset dy="-3.04762"/>
<feGaussianBlur stdDeviation="28"/>
<feComposite in2="hardAlpha" operator="out"/>
<feColorMatrix type="matrix" values="0 0 0 0 0.983333 0 0 0 0 0.114722 0 0 0 0 0.427422 0 0 0 0.5 0"/>
<feBlend mode="normal" in2="BackgroundImageFix" result="effect1_dropShadow_75_690"/>
<feBlend mode="normal" in="SourceGraphic" in2="effect1_dropShadow_75_690" result="shape"/>
<feColorMatrix in="SourceAlpha" type="matrix" values="0 0 0 0 0 0 0 0 0 0 0 0 0 0 0 0 0 0 127 0" result="hardAlpha"/>
<feOffset dy="0.406349"/>
<feGaussianBlur stdDeviation="11.5"/>
<feComposite in2="hardAlpha" operator="arithmetic" k2="-1" k3="1"/>
<feColorMatrix type="matrix" values="0 0 0 0 0.819608 0 0 0 0 0.439216 0 0 0 0 1 0 0 0 1 0"/>
<feBlend mode="normal" in2="shape" result="effect2_innerShadow_75_690"/>
</filter>
<linearGradient id="paint0_linear_75_690" x1="129.779" y1="47.4685" x2="129.779" y2="161.818" gradientUnits="userSpaceOnUse">
<stop stop-color="#D170FF"/>
<stop offset="1" stop-color="#D0326C"/>
</linearGradient>
</defs>
</svg>
