<?xml version="1.0" standalone="no"?>
<!DOCTYPE svg PUBLIC "-//W3C//DTD SVG 20010904//EN"
 "http://www.w3.org/TR/2001/REC-SVG-20010904/DTD/svg10.dtd">
<svg version="1.0" xmlns="http://www.w3.org/2000/svg"
 width="302.000000pt" height="302.000000pt" viewBox="0 0 302.000000 302.000000"
 preserveAspectRatio="xMidYMid meet">
<metadata>
Created by potrace 1.14, written by Peter Selinger 2001-2017
</metadata>
<g transform="translate(0.000000,302.000000) scale(0.100000,-0.100000)"
fill="#000000" stroke="none">
<path d="M1369 3016 c-2 -2 -31 -7 -64 -10 -226 -26 -490 -133 -692 -282 -193
-143 -365 -352 -467 -567 -37 -77 -99 -256 -109 -312 -3 -17 -11 -57 -18 -90
-23 -110 -16 -442 10 -543 6 -20 12 -48 14 -62 9 -49 68 -213 104 -289 176
-367 495 -650 880 -781 51 -17 103 -33 115 -36 151 -33 187 -36 348 -38 187
-1 216 2 355 33 373 84 706 312 914 624 124 187 215 417 246 622 13 85 13 361
0 440 -53 332 -193 612 -420 841 -227 230 -486 368 -810 430 -69 14 -396 29
-406 20z m435 -962 c65 -14 126 -29 136 -34 18 -9 16 -18 -27 -143 -26 -72
-48 -134 -50 -136 -1 -2 -38 7 -80 21 -146 49 -270 62 -308 34 -16 -12 -18
-19 -10 -42 9 -24 25 -34 105 -65 211 -82 230 -90 270 -115 114 -70 162 -188
138 -342 -29 -182 -180 -282 -436 -287 -159 -3 -332 29 -454 83 l-57 25 13 31
c7 17 28 63 46 101 18 39 41 89 52 112 l19 42 77 -39 c148 -74 319 -104 377
-66 57 38 28 64 -144 131 -243 95 -315 156 -346 290 -38 165 41 324 190 383
115 46 309 52 489 16z"/>
</g>
</svg>
