<svg width="406" height="152" viewBox="0 0 406 152" fill="none" xmlns="http://www.w3.org/2000/svg">
<path d="M42.0556 151.867C66.4818 151.867 82.6244 142.097 82.6244 120.432C82.6244 105.776 74.7655 97.4925 60.9594 91.7576L43.33 84.1112C36.5331 81.1375 33.9843 79.0135 33.9843 75.1903C33.9843 71.5795 36.3207 69.243 43.9672 69.243C52.8881 69.243 62.6586 72.2167 71.5795 76.0399L80.2879 54.1625C68.8182 49.9145 56.7113 47.3656 45.454 47.3656C20.8154 47.3656 7.43407 57.9857 7.43407 77.1019C7.43407 89.846 14.0185 99.6165 29.5239 106.413L47.1532 114.06C52.8881 116.821 55.6493 118.733 55.6493 122.556C55.6493 127.441 51.6137 129.565 43.5424 129.565C31.6479 129.565 20.3906 125.105 10.6201 119.37L0 141.46C12.9565 148.681 28.4619 151.867 42.0556 151.867Z" fill="url(#paint0_linear_7_244)"/>
<path d="M124.248 151.867C139.541 151.867 148.887 144.221 154.834 133.601H155.259V148.681H180.96V50.5517H154.834V97.7049C154.834 119.37 146.126 127.866 133.169 127.866C121.912 127.866 114.69 121.282 114.69 105.989V50.5517H87.9278V110.661C87.9278 139.76 104.283 151.867 124.248 151.867Z" fill="url(#paint1_linear_7_244)"/>
<path d="M255.091 151.867C280.792 151.867 302.245 133.176 302.245 99.6165C302.245 66.057 280.792 47.3656 255.091 47.3656C239.161 47.3656 228.541 54.1625 222.382 64.3578H221.957V0H195.831V148.681H221.957V134.875H222.382C228.541 145.071 239.161 151.867 255.091 151.867ZM248.507 127.229C232.789 127.229 221.957 116.184 221.957 99.6165C221.957 83.0492 232.789 72.0043 248.507 72.0043C264.225 72.0043 275.057 83.0492 275.057 99.6165C275.057 116.184 264.225 127.229 248.507 127.229Z" fill="url(#paint2_linear_7_244)"/>
<path d="M353.648 2.12402C324.124 2.12402 306.07 17.6294 305.645 43.7548H332.195C332.407 32.7099 340.054 26.3378 352.798 26.3378C365.33 26.3378 372.339 32.7099 372.339 44.1796C372.339 57.3485 363.843 63.7206 346.426 63.7206H340.479V84.9608H346.426C368.94 84.7484 377.649 90.6956 377.649 105.989C377.649 120.219 370.003 127.654 355.134 127.654C340.479 127.654 331.558 120.432 330.708 107.688H303.733C304.37 135.725 322.849 151.867 354.922 151.867C386.357 151.867 405.049 135.512 405.049 108.325C405.049 87.722 394.216 74.9779 374.675 72.4291V72.0043C390.818 68.181 400.164 56.0741 400.164 39.5068C400.164 16.1426 382.747 2.12402 353.648 2.12402Z" fill="url(#paint3_linear_7_244)"/>
<defs>
<linearGradient id="paint0_linear_7_244" x1="204.685" y1="-22.6562" x2="204.685" y2="184.082" gradientUnits="userSpaceOnUse">
<stop stop-color="#D170FF"/>
<stop offset="1" stop-color="#D0326C"/>
</linearGradient>
<linearGradient id="paint1_linear_7_244" x1="204.685" y1="-22.6562" x2="204.685" y2="184.082" gradientUnits="userSpaceOnUse">
<stop stop-color="#D170FF"/>
<stop offset="1" stop-color="#D0326C"/>
</linearGradient>
<linearGradient id="paint2_linear_7_244" x1="204.685" y1="-22.6562" x2="204.685" y2="184.082" gradientUnits="userSpaceOnUse">
<stop stop-color="#D170FF"/>
<stop offset="1" stop-color="#D0326C"/>
</linearGradient>
<linearGradient id="paint3_linear_7_244" x1="204.685" y1="-22.6562" x2="204.685" y2="184.082" gradientUnits="userSpaceOnUse">
<stop stop-color="#D170FF"/>
<stop offset="1" stop-color="#D0326C"/>
</linearGradient>
</defs>
</svg>
